PathFileType	4	(X/Y/Z)	53_2_99_p1_0-228_filt_butterworth.trc
DataRate	CameraRate	NumFrames	NumMarkers	Units	OrigDataRate	OrigDataStartFrame	OrigNumFrames
60.0	60.0	6	27	m	60.0	114	228
Frame#	Time	RHip			RKnee			RAnkle			RBigToe			RSmallToe			RHeel			LHip			LKnee			LAnkle			LBigToe			LSmallToe			LHeel			Neck			Head			Nose			RShoulder			RElbow			RWrist			RThumb			RIndex			RPinky			LShoulder			LElbow			LWrist			LThumb			LIndex			LPinky			
		X1	Y1	Z1	X2	Y2	Z2	X3	Y3	Z3	X4	Y4	Z4	X5	Y5	Z5	X6	Y6	Z6	X7	Y7	Z7	X8	Y8	Z8	X9	Y9	Z9	X10	Y10	Z10	X11	Y11	Z11	X12	Y12	Z12	X13	Y13	Z13	X14	Y14	Z14	X15	Y15	Z15	X16	Y16	Z16	X17	Y17	Z17	X18	Y18	Z18	X19	Y19	Z19	X20	Y20	Z20	X21	Y21	Z21	X22	Y22	Z22	X23	Y23	Z23	X24	Y24	Z24	X25	Y25	Z25	X26	Y26	Z26	X27	Y27	Z27	
114	1.9	0.39727463851072975	0.8668173868305742	0.7543691010310288	0.3489469640970284	0.416749906997412	0.7538874411432763	0.3229173316099835	0.009948990754905573	0.823197155161269	0.297817939088549	0.013866561364260982	0.6471926004682852	0.36203806334675503	-0.011844384083063209	0.6872498846591656	0.31355750555706213	-0.10024657422933299	0.9210358005316857	0.21624895654071843	0.8853917509073213	0.7265621100158474	0.18574514774549833	0.42221142448097104	0.773986026094903	0.15659274688458993	-0.01818134563067489	0.8688749810600602	0.16384367003177597	0.006996141419706489	0.6863144160075819	0.1257740988712448	0.016473679980722827	0.6884415468943906	0.16712728558994552	-0.07274388574376413	0.9155938271085523	0.3292262364907346	1.3386511190783992	0.8743915428750694	0.392627916113519	1.5900427938090522	0.7454956213856678	0.35014424698319163	1.4347990599884823	0.6888966603958248	0.4558803864256998	1.2849451364324438	0.905988107886646	0.4603748929521775	1.1282556337691567	0.6861366895191937	0.4614408366403121	1.334972081078234	0.6701977631023159	0.3893522644533399	1.39994826928266	0.7599023013211446	0.38755387538345465	1.4341849453213986	0.70542754912589	0.4051529254421943	1.3886222965067267	0.6594199485931395	0.19655959335789486	1.325228449412795	0.8283615297122212	0.11737318882551609	1.0582188579652105	0.8412535770878783	0.2693026192331616	1.1458570085925335	0.6951140516205894	0.3743163514097947	1.156667087792283	0.7015358725257612	0.3856473997343506	1.1320870293844194	0.6725844584394347	0.3448491167971618	1.083830033652936	0.6968884165180768	
115	1.9166666666666667	0.39889415464893085	0.8674497349314996	0.752495950480348	0.34975328881469697	0.4158033553432129	0.7551687894990189	0.3233020881802592	0.009861676094106986	0.8248352485994839	0.29797023893537733	0.013710864064436001	0.6473383993580303	0.3625079119928467	-0.01082280064861589	0.6857438425019037	0.31397287589918327	-0.10015315804265462	0.9220783229445477	0.21760620930741478	0.8858250421817634	0.725723260128997	0.18768591574195495	0.4231757365970941	0.7713834084284917	0.15667077646168084	-0.018043626954673306	0.8692063122221771	0.16384263222738332	0.009012052807521306	0.6862611825617407	0.12580638092572538	0.01838281961248464	0.686485075884027	0.16714213200502046	-0.07296327464688745	0.915513039359882	0.3301084330900501	1.3390525847387675	0.8714478394001445	0.3933927311632981	1.590709824535712	0.7472537549910898	0.351519052005763	1.4349751375985023	0.6918030213815756	0.45631160994457515	1.2840016938042143	0.9047246122134945	0.4606246665166993	1.1291835752646209	0.685371772269072	0.4624228936474625	1.3344019791224369	0.6708802116567066	0.3916083969617764	1.4013549214860015	0.7624639734246883	0.3894783355827941	1.4354724643117733	0.7097427745467905	0.40562835776066297	1.3880543379288814	0.6624752146339253	0.1973714977348758	1.3241883535401584	0.831430315384247	0.1181926820595742	1.0586813027985278	0.8351666106382328	0.27033457736297467	1.1462460976666249	0.692928774668401	0.3746903891560868	1.157907141754866	0.6961912394327496	0.3866680446495967	1.1333658778339963	0.6671836338627537	0.34466045369105697	1.084730373334455	0.696848906291296	
116	1.933333333333333	0.4003281531996815	0.8681518527000724	0.7504420522919542	0.3504004348653149	0.41503173009434596	0.7563185067384492	0.3236136202030239	0.009707813247492147	0.8263814862081321	0.29812237540723197	0.013673891079020714	0.6473957589309596	0.3630631243916435	-0.00995411977014958	0.6854983613616137	0.31427649833830285	-0.10015711323300361	0.9232676788154447	0.21874283698588287	0.8860967965975803	0.7253126611698351	0.18932386527456652	0.423855233919224	0.769489812734701	0.15675307457977353	-0.017871647354730028	0.8695318074217849	0.16400026883353486	0.011581172507867776	0.6845129630162857	0.1257979642026076	0.019598767383306598	0.6856576216313502	0.16719303445600514	-0.07331189754512014	0.9154545815959892	0.33101529188257484	1.3394902099088157	0.8685195404071001	0.39330242365228735	1.5920076515101869	0.7498776558923219	0.35238472742848787	1.4351472787976989	0.6957468840635911	0.4578142129500117	1.2820954030527836	0.9012361666824885	0.4606336308862323	1.1301075286981448	0.6852809295161828	0.463210317932761	1.3344596673041478	0.6705254949366782	0.3919746425422922	1.402425388204438	0.7631462315525267	0.3893966967059379	1.4368956846206529	0.7086378678331824	0.4054525650772985	1.3882449284843363	0.6649153615289483	0.19798301365922155	1.3231529650621705	0.8336591814687835	0.11913713643134996	1.0590000865996432	0.8301434440993755	0.27096027567689307	1.14651702332425	0.6907811112887936	0.37504110671106156	1.1578326754715236	0.6922260568457657	0.3876983748701567	1.1339241547796446	0.664058929333182	0.3442880717411112	1.0851738923315555	0.6970491865157639	
117	1.95	0.401597659615354	0.8689500656329971	0.7482903441626669	0.350876415697367	0.41452672248854683	0.7573060269918834	0.32387673655276256	0.00952668271835952	0.8276389355872164	0.2982479952134638	0.014005785210785382	0.6473344255323038	0.36346910979174485	-0.00916529195274457	0.6859214795472042	0.31447795222802766	-0.10029359718565634	0.9245014420539487	0.21968165857385802	0.8862197050830722	0.7251291997296612	0.19066912032345412	0.42429935601164825	0.7682112611062182	0.1568465520255706	-0.01759995693265491	0.869706232185994	0.16435472112068128	0.014300885406570832	0.681360729862069	0.12571157074403633	0.02020557501302539	0.685601070141834	0.1672470183115177	-0.07371731286847819	0.9153920434906768	0.3318698047742539	1.3398067339271391	0.8661230297182577	0.39265809668699936	1.5935316643879496	0.7529509044592686	0.3526364205568366	1.4352217299672065	0.6997380845430176	0.4599997836538653	1.2792393172474248	0.8967214720942234	0.46070608736048185	1.1310397194863526	0.6850062758777742	0.463921186607326	1.3351881673609443	0.6682766547022814	0.39136114126858335	1.4031066980220046	0.7615289720972537	0.3885386812571258	1.4382695664183232	0.7035895239894393	0.4048636933132096	1.3894905293810653	0.665908102145051	0.19819587509461323	1.3222993809382175	0.834290274093453	0.12024752321593718	1.0590025992136298	0.8262083651757093	0.27128247809904443	1.146551740314986	0.688333713005606	0.37555904953487973	1.1564613497335585	0.6896577584202409	0.3886987045566527	1.1339795467301008	0.6622034042052505	0.34391600804511757	1.0853084620057991	0.6967761710753186	
118	1.9666666666666663	0.40272546478382737	0.8698222470366751	0.746209778175992	0.35118431054684096	0.41431045027762964	0.7581162906225634	0.32411344450369434	0.009338136345038273	0.8285565374238105	0.2983659033819045	0.014821391889814586	0.647175061690407	0.36360987093573083	-0.008369892787568098	0.6863076441948787	0.31461221720083304	-0.10060092441249646	0.9256028902357174	0.22048430787701884	0.8861772506393228	0.724986689765142	0.19172491387954566	0.4245997952965845	0.7674548861799294	0.15694962324620282	-0.01722083060637168	0.8697015983972928	0.16488790443846946	0.017089302592606603	0.6770744124337846	0.1255072771629394	0.020433629776425502	0.6857577473157254	0.16726637850503856	-0.07408017934406054	0.9152805671978611	0.33260166269223734	1.3399507638242723	0.8647410088094999	0.39192890008732734	1.595191610504753	0.7557249817932212	0.3524910273564247	1.4351749633105912	0.7024473531595304	0.46228088541707113	1.275945676693705	0.8924366056195372	0.46117504382854535	1.1319685931922114	0.6837106394687675	0.4646643102701328	1.3364386448090326	0.6637307703941338	0.3909020554796353	1.4035744954708198	0.7572531997617654	0.3882029551706042	1.4395962938158309	0.6960647313483794	0.4044890310141513	1.3916163443477083	0.6648627595060987	0.19793712275827613	1.3217876081087196	0.833074756684572	0.12153917329663452	1.0586536440945875	0.822753765280442	0.2713570008860672	1.1462001883866035	0.6853173204190663	0.37621167633234764	1.1543413009027381	0.6877214597466301	0.3895825071190868	1.133693870590225	0.66051699526083	0.3436970240804992	1.085090541895066	0.6960919336903574	
119	1.9833333333333327	0.40369921353712424	0.8707185009684719	0.7443069514313497	0.35130749944508977	0.41435938466025674	0.7587425452881842	0.3243185645016282	0.009136518080272119	0.8291854434248486	0.29848788771888646	0.016087732340573382	0.6469624101128189	0.3634477990712748	-0.007588492800515809	0.6862912621882379	0.31470982718875296	-0.10106487330107661	0.9264100389281502	0.22119730384046898	0.885968898828517	0.7248442111916295	0.19245414610904255	0.42481623141273644	0.7671903918404381	0.1570570503757312	-0.016779193934859854	0.8695956939475118	0.16552319799562404	0.020055490411949983	0.6717851976196239	0.12516159312366476	0.020468268911469606	0.6858101848422427	0.1672281391460008	-0.0743363367500689	0.9150968486199719	0.33312746949145067	1.3399458724734763	0.8644871564986767	0.3915037414650472	1.5970119011224861	0.7573544509637444	0.3524825319477771	1.435069091914225	0.7029882960490793	0.4641804804260217	1.2729994146113606	0.8890185976798175	0.4621947326075495	1.132821956139065	0.6812249271979918	0.4655087015526748	1.3379651701531012	0.6573950922380076	0.3910882696939711	1.4040865412679873	0.7499854390726592	0.38867384310831266	1.4410403045554339	0.686253104012794	0.4047642903424014	1.394189463338933	0.6618816111380841	0.19728097633055228	1.3217191178690577	0.8303291754292819	0.12290667929255603	1.0580362395683744	0.8192058153082769	0.27120054933913	1.145292598741434	0.6819452971217022	0.3768693821926229	1.1520886828758579	0.6857315957579807	0.3902955157370839	1.1329833056501342	0.6586783885849192	0.34369219141473895	1.0843670068383906	0.6958558223767335	
